<?xml version="1.0" encoding="iso-8859-1"?>
<!-- Generator: Adobe Illustrator 19.0.0, SVG Export Plug-In . SVG Version: 6.00 Build 0)  -->
<svg version="1.1" id="Layer_1" xmlns="http://www.w3.org/2000/svg" xmlns:xlink="http://www.w3.org/1999/xlink" x="0px" y="0px"
	 viewBox="0 0 512.001 512.001" style="enable-background:new 0 0 512.001 512.001;" xml:space="preserve">
<g>
	<g>
		<path d="M486.505,92.501c19.152-51.586-15.415-86.13-66.98-66.982C408.763,7.168,390.531-2.465,369.703,0.58
			c-41.99,6.153-74.337,59.635-76.419,107.653C192.988,97.253,97.223,192.977,108.211,293.31
			c-23.354,1.019-48.381,9.079-69.108,22.96c-48.653,32.58-50.395,81.702-13.604,103.275c-9.097,24.502-6.798,46.083,7.054,59.932
			c13.85,13.849,35.424,16.149,59.928,7.05c20.696,35.284,69.591,36.702,103.322-13.671c13.859-20.696,21.905-45.695,22.919-69.035
			c100.553,11.01,196.028-85.014,185.073-185.079c47.796-2.088,101.474-34.258,107.652-76.424
			C514.49,121.496,504.858,103.262,486.505,92.501z M136.795,473.84c-9.979,1.46-13.926-10.134-15.393-17.175
			c-2.647-12.718-17.031-19.105-28.246-12.517c-21.83,12.828-32.296,9.859-33.716,8.44c-1.422-1.422-4.391-11.893,8.437-33.721
			c6.583-11.203,0.214-25.596-12.517-28.245c-7.041-1.467-18.635-5.415-17.177-15.388c3.076-20.99,44.127-46.654,80.022-43.885
			c11.868,27.225,33.466,49.803,62.469,62.468C183.488,430.016,157.553,470.801,136.795,473.84z M203.573,361.896
			c-25.316-8.301-44.972-27.609-53.443-53.444v-0.001c0,0,0-0.001-0.001-0.003c-11.323-34.505-2.208-75.345,23.161-108.25
			l34.758,34.758c-19.15,43.735,25.403,88.126,69.023,69.023l34.758,34.756C278.922,364.105,238.084,373.22,203.573,361.896z
			 M245.838,245.865c0.003-0.001,0.004-0.001,0.005-0.003c0.001-0.001,0.001-0.003,0.003-0.004c2.8-2.799,6.478-4.198,10.155-4.198
			c3.678,0,7.358,1.401,10.159,4.201c5.601,5.601,5.601,14.713,0.004,20.317c-0.001,0.001-0.003,0.003-0.004,0.004
			s-0.003,0.003-0.004,0.004c-5.602,5.597-14.715,5.595-20.314-0.004C240.241,260.581,240.24,251.468,245.838,245.865z
			 M338.715,311.848l-34.759-34.758c8.404-19.193,4.777-42.427-10.907-58.115c0,0,0,0-0.001,0
			c-15.685-15.687-38.921-19.313-58.114-10.908l-34.759-34.758c23.512-18.128,51.073-27.959,77.485-27.959
			c40.441,0,72.618,22.88,84.215,58.245c0.001,0.001,0.001,0.003,0.001,0.004C373.199,238.103,364.084,278.942,338.715,311.848z
			 M473.822,136.809c-3.07,20.941-44.098,46.677-80.022,43.885c-12.01-27.572-33.844-49.987-62.469-62.468
			c-3.964-50.975,49.513-109.724,59.273-62.846c2.648,12.721,17.033,19.106,28.245,12.517c21.83-12.825,32.297-9.861,33.717-8.439
			c1.422,1.422,4.389,11.892-8.437,33.72c-6.582,11.203-0.214,25.596,12.517,28.245
			C463.685,122.888,475.279,126.838,473.822,136.809z"/>
	</g>
</g>
<g>
</g>
<g>
</g>
<g>
</g>
<g>
</g>
<g>
</g>
<g>
</g>
<g>
</g>
<g>
</g>
<g>
</g>
<g>
</g>
<g>
</g>
<g>
</g>
<g>
</g>
<g>
</g>
<g>
</g>
</svg>
